<svg width="1037" height="237" viewBox="0 0 1037 237" fill="none" xmlns="http://www.w3.org/2000/svg">
<path d="M88.55 139.71C88.55 131.123 86.25 124.53 81.65 119.93C77.05 115.177 70.5333 112.8 62.1 112.8C54.1267 112.8 47.38 114.563 41.86 118.09C36.34 121.463 32.2767 126.983 29.67 134.65L14.72 125.45C17.7867 116.863 23.46 109.963 31.74 104.75C40.02 99.3833 50.2933 96.7 62.56 96.7C70.84 96.7 78.3533 98.1567 85.1 101.07C91.8467 103.83 97.1367 108.123 100.97 113.95C104.957 119.623 106.95 126.983 106.95 136.03V191.69C106.95 197.21 109.863 199.97 115.69 199.97C118.603 199.97 121.44 199.587 124.2 198.82L123.28 213.31C120.213 214.843 116.227 215.61 111.32 215.61C106.873 215.61 102.887 214.767 99.36 213.08C95.8333 211.393 93.0733 208.863 91.08 205.49C89.0867 201.963 88.09 197.593 88.09 192.38V190.08L92.69 190.77C90.85 196.75 87.7067 201.657 83.26 205.49C78.8133 209.17 73.83 211.93 68.31 213.77C62.79 215.457 57.3467 216.3 51.98 216.3C45.2333 216.3 38.9467 215.15 33.12 212.85C27.2933 210.55 22.6167 207.1 19.09 202.5C15.7167 197.747 14.03 191.92 14.03 185.02C14.03 176.433 16.8667 169.38 22.54 163.86C28.3667 158.187 36.4167 154.353 46.69 152.36L92.23 143.39V158.57L55.2 166.16C47.6867 167.693 42.09 169.84 38.41 172.6C34.73 175.36 32.89 179.193 32.89 184.1C32.89 188.853 34.73 192.763 38.41 195.83C42.2433 198.743 47.61 200.2 54.51 200.2C58.9567 200.2 63.1733 199.663 67.16 198.59C71.3 197.363 74.98 195.6 78.2 193.3C81.42 190.847 83.95 187.857 85.79 184.33C87.63 180.65 88.55 176.357 88.55 171.45V139.71ZM165.463 76.92C161.323 76.92 157.95 75.6933 155.343 73.24C152.89 70.6333 151.663 67.26 151.663 63.12C151.663 58.98 152.89 55.6833 155.343 53.23C157.95 50.6233 161.323 49.32 165.463 49.32C169.603 49.32 172.9 50.6233 175.353 53.23C177.96 55.6833 179.263 58.98 179.263 63.12C179.263 67.26 177.96 70.6333 175.353 73.24C172.9 75.6933 169.603 76.92 165.463 76.92ZM174.663 99V214H156.263V99H174.663ZM231.157 186.4C235.604 186.4 239.207 187.78 241.967 190.54C244.727 193.3 246.107 196.903 246.107 201.35C246.107 205.797 244.727 209.4 241.967 212.16C239.207 214.92 235.604 216.3 231.157 216.3C226.711 216.3 223.107 214.92 220.347 212.16C217.587 209.4 216.207 205.797 216.207 201.35C216.207 196.903 217.587 193.3 220.347 190.54C223.107 187.78 226.711 186.4 231.157 186.4ZM346.711 99H366.031L318.191 214H299.791L251.951 99H272.881L309.221 195.37L346.711 99ZM602.42 96.7C610.394 96.7 617.37 97.9267 623.35 100.38C629.484 102.833 634.774 106.36 639.22 110.96C643.667 115.56 647.27 121.003 650.03 127.29L632.55 135.57C630.097 128.21 626.34 122.613 621.28 118.78C616.374 114.793 609.934 112.8 601.96 112.8C594.294 112.8 587.7 114.563 582.18 118.09C576.66 121.463 572.444 126.447 569.53 133.04C566.617 139.48 565.16 147.3 565.16 156.5C565.16 165.547 566.617 173.367 569.53 179.96C572.444 186.553 576.66 191.613 582.18 195.14C587.7 198.513 594.294 200.2 601.96 200.2C607.94 200.2 613.077 199.28 617.37 197.44C621.817 195.6 625.42 192.917 628.18 189.39C631.094 185.863 633.087 181.57 634.16 176.51L651.18 182.49C648.574 189.543 644.97 195.6 640.37 200.66C635.924 205.72 630.48 209.63 624.04 212.39C617.754 214.997 610.547 216.3 602.42 216.3C591.687 216.3 582.104 213.923 573.67 209.17C565.237 204.417 558.644 197.593 553.89 188.7C549.137 179.653 546.76 168.92 546.76 156.5C546.76 144.08 549.137 133.423 553.89 124.53C558.644 115.483 565.237 108.583 573.67 103.83C582.104 99.0767 591.687 96.7 602.42 96.7ZM755.272 139.71C755.272 131.123 752.972 124.53 748.372 119.93C743.772 115.177 737.255 112.8 728.821 112.8C720.848 112.8 714.101 114.563 708.581 118.09C703.061 121.463 698.998 126.983 696.391 134.65L681.441 125.45C684.508 116.863 690.181 109.963 698.461 104.75C706.741 99.3833 717.015 96.7 729.281 96.7C737.561 96.7 745.075 98.1567 751.821 101.07C758.568 103.83 763.858 108.123 767.691 113.95C771.678 119.623 773.672 126.983 773.672 136.03V191.69C773.672 197.21 776.585 199.97 782.412 199.97C785.325 199.97 788.162 199.587 790.922 198.82L790.001 213.31C786.935 214.843 782.948 215.61 778.042 215.61C773.595 215.61 769.608 214.767 766.081 213.08C762.555 211.393 759.795 208.863 757.802 205.49C755.808 201.963 754.812 197.593 754.812 192.38V190.08L759.412 190.77C757.572 196.75 754.428 201.657 749.982 205.49C745.535 209.17 740.551 211.93 735.032 213.77C729.511 215.457 724.068 216.3 718.701 216.3C711.955 216.3 705.668 215.15 699.841 212.85C694.015 210.55 689.338 207.1 685.811 202.5C682.438 197.747 680.751 191.92 680.751 185.02C680.751 176.433 683.588 169.38 689.261 163.86C695.088 158.187 703.138 154.353 713.411 152.36L758.952 143.39V158.57L721.921 166.16C714.408 167.693 708.811 169.84 705.131 172.6C701.451 175.36 699.611 179.193 699.611 184.1C699.611 188.853 701.451 192.763 705.131 195.83C708.965 198.743 714.331 200.2 721.232 200.2C725.678 200.2 729.895 199.663 733.882 198.59C738.021 197.363 741.701 195.6 744.921 193.3C748.142 190.847 750.672 187.857 752.512 184.33C754.352 180.65 755.272 176.357 755.272 171.45V139.71ZM845.633 66.34V182.26C845.633 187.933 847.243 192.15 850.463 194.91C853.683 197.67 857.823 199.05 862.883 199.05C867.329 199.05 871.163 198.283 874.383 196.75C877.603 195.217 880.516 193.147 883.123 190.54L889.563 205.95C886.036 209.17 881.819 211.7 876.913 213.54C872.159 215.38 866.639 216.3 860.353 216.3C854.526 216.3 849.083 215.303 844.023 213.31C838.963 211.163 834.899 207.867 831.833 203.42C828.919 198.82 827.386 192.84 827.233 185.48V71.4L845.633 66.34ZM887.493 99V114.87H804.233V99H887.493ZM967.52 216.3C956.634 216.3 946.897 213.923 938.31 209.17C929.877 204.417 923.284 197.593 918.53 188.7C913.777 179.653 911.4 168.92 911.4 156.5C911.4 144.08 913.777 133.423 918.53 124.53C923.284 115.483 929.8 108.583 938.08 103.83C946.36 99.0767 955.79 96.7 966.37 96.7C977.104 96.7 986.227 99 993.74 103.6C1001.41 108.2 1007.23 114.487 1011.22 122.46C1015.21 130.28 1017.2 139.097 1017.2 148.91C1017.2 151.517 1017.12 153.893 1016.97 156.04C1016.82 158.187 1016.59 160.103 1016.28 161.79H923.36V145.46H1008.23L998.8 147.3C998.8 136.26 995.734 127.75 989.6 121.77C983.62 115.79 975.724 112.8 965.91 112.8C958.397 112.8 951.88 114.563 946.36 118.09C940.994 121.463 936.777 126.447 933.71 133.04C930.797 139.48 929.34 147.3 929.34 156.5C929.34 165.547 930.874 173.367 933.94 179.96C937.007 186.553 941.3 191.613 946.82 195.14C952.494 198.513 959.24 200.2 967.06 200.2C975.494 200.2 982.317 198.59 987.53 195.37C992.897 192.15 997.19 187.78 1000.41 182.26L1014.9 190.77C1011.99 195.983 1008.23 200.507 1003.63 204.34C999.184 208.173 993.894 211.163 987.76 213.31C981.78 215.303 975.034 216.3 967.52 216.3Z" fill="#90B480"/>
<path d="M424.83 44.6169C432.403 37.2072 442.254 32.5739 455.012 32.4494C467.77 32.5739 477.621 37.2072 485.195 44.6169C492.936 52.1905 498.323 62.7033 501.767 74.3125C508.657 97.5394 508.681 97.6093 516.582 116.495L516.611 116.566L516.647 116.636C529.599 142.049 537.042 178.875 514.267 206.81C503.076 220.537 491.232 226.78 480.764 229.708C472.043 232.147 464.244 232.319 458.088 232.454C457.294 232.471 456.527 232.488 455.789 232.509C455.037 232.488 454.25 232.471 453.432 232.453C447.174 232.318 439.055 232.143 430.017 229.701C419.145 226.765 406.929 220.513 395.757 206.81C372.983 178.875 380.426 142.049 393.377 116.636L393.413 116.566L393.443 116.495C401.344 97.6093 401.367 97.5394 408.258 74.3125C411.702 62.7033 417.089 52.1905 424.83 44.6169Z" fill="#90B480"/>
<path fill-rule="evenodd" clip-rule="evenodd" d="M454.483 28.0093C440.367 28.259 429.352 33.508 421.02 41.6589C412.546 49.9503 406.877 61.2038 403.318 73.1993L403.294 73.2815C399.576 85.8147 397.885 91.5136 395.855 97.1192C394.163 101.793 392.234 106.403 388.698 114.856L388.679 114.9C375.495 140.811 367.264 179.538 391.598 209.386C403.432 223.901 416.587 230.729 428.506 233.949C438.293 236.592 447.239 236.777 453.487 236.907L454.599 236.93L454.603 237C454.983 236.984 455.379 236.971 455.791 236.96C456.204 236.971 456.602 236.984 456.982 237L456.985 236.93L458.034 236.907C464.186 236.778 472.832 236.596 482.322 233.942C493.864 230.714 506.612 223.877 518.426 209.386C542.76 179.538 534.53 140.811 521.345 114.9L521.326 114.855C517.79 106.402 515.861 101.793 514.169 97.1192C512.139 91.5136 510.449 85.8147 506.731 73.2815L506.706 73.1993C503.148 61.2038 497.479 49.9503 489.004 41.6589C480.673 33.508 469.658 28.259 455.541 28.0093V28C455.364 28 455.188 28.0008 455.012 28.0023C454.836 28.0008 454.66 28 454.483 28V28.0093ZM455.012 32.4494C442.254 32.5739 432.403 37.2072 424.83 44.6169C417.089 52.1905 411.702 62.7033 408.258 74.3125C401.367 97.5394 401.344 97.6093 393.443 116.495L393.413 116.566L393.377 116.636C380.426 142.049 372.983 178.875 395.757 206.81C406.929 220.513 419.145 226.765 430.017 229.701C439.055 232.143 447.174 232.318 453.432 232.453C454.25 232.471 455.037 232.488 455.789 232.509C456.527 232.488 457.294 232.471 458.088 232.454C464.244 232.319 472.043 232.147 480.764 229.708C491.232 226.78 503.076 220.537 514.267 206.81C537.042 178.875 529.599 142.049 516.647 116.636L516.611 116.566L516.582 116.495C508.681 97.6093 508.657 97.5394 501.767 74.3125C498.323 62.7033 492.936 52.1905 485.195 44.6169C477.621 37.2072 467.77 32.5739 455.012 32.4494Z" fill="#90B480"/>
<path d="M456.941 116.638C464.515 116.638 471.181 118.292 476.941 121.598C482.808 124.905 487.395 129.705 490.701 135.998C494.008 142.185 495.661 149.598 495.661 158.238C495.661 166.878 494.008 174.345 490.701 180.638C487.395 186.825 482.808 191.572 476.941 194.878C471.181 198.185 464.515 199.838 456.941 199.838C449.475 199.838 442.808 198.185 436.941 194.878C431.075 191.572 426.488 186.825 423.181 180.638C419.875 174.345 418.221 166.878 418.221 158.238C418.221 149.598 419.875 142.185 423.181 135.998C426.488 129.705 431.075 124.905 436.941 121.598C442.808 118.292 449.475 116.638 456.941 116.638ZM456.941 127.678C451.501 127.678 446.861 128.905 443.021 131.358C439.181 133.812 436.195 137.332 434.061 141.918C432.035 146.398 431.021 151.838 431.021 158.238C431.021 164.532 432.035 169.972 434.061 174.558C436.195 179.145 439.181 182.665 443.021 185.118C446.861 187.572 451.501 188.798 456.941 188.798C462.381 188.798 467.021 187.572 470.861 185.118C474.701 182.665 477.635 179.145 479.661 174.558C481.795 169.972 482.861 164.532 482.861 158.238C482.861 151.838 481.795 146.398 479.661 141.918C477.635 137.332 474.701 133.812 470.861 131.358C467.021 128.905 462.381 127.678 456.941 127.678Z" fill="#755C46"/>
<circle cx="459.224" cy="160.537" r="35.6829" fill="#755C46"/>
</svg>
